<svg xmlns="http://www.w3.org/2000/svg" width="216px" height="83px" id="Layer_1" data-name="Layer 1" viewBox="0 0 216 83"><g id="tagline"><path d="M1.798,72.744h3.453c1.76,0,2.969.981,2.969,2.661,0,1.76-1.236,2.74-3.063,2.74h-2.391v3.977h-.967v-9.378ZM2.765,77.299h2.405c1.41,0,2.042-.726,2.042-1.867,0-1.196-.806-1.854-1.988-1.854h-2.459v3.722Z" fill="#154758" stroke-width="0"></path><path d="M12.36,72.744v9.378h-.954v-9.378h.954Z" fill="#154758" stroke-width="0"></path><path d="M16.58,79.556c.269,1.195,1.061,1.881,2.526,1.881,1.599,0,2.217-.779,2.217-1.747,0-1.008-.457-1.599-2.445-2.083-2.082-.524-2.902-1.209-2.902-2.553,0-1.303.954-2.445,3.01-2.445,2.136,0,3.036,1.276,3.157,2.459h-.981c-.201-.927-.793-1.639-2.217-1.639-1.263,0-1.962.578-1.962,1.559,0,.953.578,1.33,2.271,1.747,2.66.658,3.09,1.706,3.09,2.875,0,1.437-1.061,2.619-3.292,2.619-2.351,0-3.278-1.33-3.466-2.673h.995Z" fill="#154758" stroke-width="0"></path><path d="M32.932,79.542c-.443,1.545-1.572,2.687-3.627,2.687-2.741,0-4.151-2.136-4.151-4.783,0-2.54,1.397-4.837,4.178-4.837,2.109,0,3.305,1.182,3.6,2.754h-.953c-.39-1.129-1.129-1.921-2.687-1.921-2.217,0-3.13,2.015-3.13,3.99,0,1.935.887,3.963,3.184,3.963,1.491,0,2.204-.806,2.62-1.854h.967Z" fill="#154758" stroke-width="0"></path><path d="M37.167,72.744v9.378h-.954v-9.378h.954Z" fill="#154758" stroke-width="0"></path><path d="M41.185,82.122v-9.378h1.33c1.41,2.23,4.608,7.201,5.172,8.222h.014c-.08-1.29-.067-2.714-.067-4.246v-3.977h.927v9.378h-1.236c-1.331-2.109-4.608-7.363-5.24-8.41h-.027c.067,1.155.067,2.633.067,4.326v4.084h-.94Z" fill="#154758" stroke-width="0"></path><path d="M58.263,77.607h-4.729v3.668h5.186l-.135.846h-6.005v-9.378h5.911v.847h-4.957v3.171h4.729v.846Z" fill="#154758" stroke-width="0"></path><path d="M62.229,79.556c.269,1.195,1.061,1.881,2.526,1.881,1.599,0,2.217-.779,2.217-1.747,0-1.008-.457-1.599-2.445-2.083-2.082-.524-2.902-1.209-2.902-2.553,0-1.303.954-2.445,3.01-2.445,2.136,0,3.036,1.276,3.157,2.459h-.981c-.201-.927-.793-1.639-2.217-1.639-1.263,0-1.962.578-1.962,1.559,0,.953.578,1.33,2.271,1.747,2.66.658,3.09,1.706,3.09,2.875,0,1.437-1.061,2.619-3.292,2.619-2.351,0-3.278-1.33-3.466-2.673h.995Z" fill="#154758" stroke-width="0"></path><path d="M83.311,79.542c-.443,1.545-1.572,2.687-3.628,2.687-2.74,0-4.151-2.136-4.151-4.783,0-2.54,1.397-4.837,4.178-4.837,2.109,0,3.305,1.182,3.601,2.754h-.954c-.39-1.129-1.129-1.921-2.687-1.921-2.217,0-3.131,2.015-3.131,3.99,0,1.935.887,3.963,3.184,3.963,1.491,0,2.204-.806,2.62-1.854h.967Z" fill="#154758" stroke-width="0"></path><path d="M94.652,77.365c0,2.58-1.41,4.89-4.326,4.89-2.701,0-4.232-2.136-4.232-4.823,0-2.674,1.518-4.823,4.326-4.823,2.606,0,4.232,2.002,4.232,4.756ZM87.102,77.393c0,2.096,1.129,4.017,3.265,4.017,2.311,0,3.265-1.894,3.265-4.017,0-2.109-1.075-3.937-3.252-3.937-2.27,0-3.278,1.867-3.278,3.937Z" fill="#154758" stroke-width="0"></path><path d="M98,82.122v-9.378h1.33c1.411,2.23,4.608,7.201,5.173,8.222h.014c-.081-1.29-.067-2.714-.067-4.246v-3.977h.927v9.378h-1.236c-1.33-2.109-4.608-7.363-5.24-8.41h-.027c.067,1.155.067,2.633.067,4.326v4.084h-.94Z" fill="#154758" stroke-width="0"></path><path d="M111.29,73.591h-3.09v-.847h7.161v.847h-3.103v8.531h-.967v-8.531Z" fill="#154758" stroke-width="0"></path><path d="M123.759,77.607h-4.729v3.668h5.186l-.135.846h-6.005v-9.378h5.912v.847h-4.958v3.171h4.729v.846Z" fill="#154758" stroke-width="0"></path><path d="M135.41,77.957c0-1.8.013-3.56.054-4.527h-.041c-.39,1.384-2.123,5.737-3.265,8.693h-.887c-.86-2.338-2.647-7.201-3.077-8.706h-.027c.067,1.074.094,3.224.094,4.823v3.883h-.927v-9.378h1.437c1.183,3.077,2.661,7.08,2.996,8.196h.027c.215-.779,1.934-5.2,3.157-8.196h1.397v9.378h-.94v-4.165Z" fill="#154758" stroke-width="0"></path><path d="M140.357,72.744h3.453c1.76,0,2.969.981,2.969,2.661,0,1.76-1.236,2.74-3.063,2.74h-2.392v3.977h-.967v-9.378ZM141.324,77.299h2.405c1.411,0,2.042-.726,2.042-1.867,0-1.196-.806-1.854-1.988-1.854h-2.459v3.722Z" fill="#154758" stroke-width="0"></path><path d="M158.119,77.365c0,2.58-1.41,4.89-4.326,4.89-2.701,0-4.232-2.136-4.232-4.823,0-2.674,1.518-4.823,4.326-4.823,2.606,0,4.232,2.002,4.232,4.756ZM150.569,77.393c0,2.096,1.129,4.017,3.265,4.017,2.311,0,3.265-1.894,3.265-4.017,0-2.109-1.075-3.937-3.251-3.937-2.271,0-3.278,1.867-3.278,3.937Z" fill="#154758" stroke-width="0"></path><path d="M162.434,77.849v4.272h-.967v-9.378h3.507c1.881,0,2.875,1.021,2.875,2.485,0,1.21-.699,1.962-1.68,2.204.874.215,1.532.819,1.532,2.432v.376c0,.645-.054,1.505.121,1.881h-.954c-.175-.403-.148-1.142-.148-1.988v-.215c0-1.451-.417-2.069-2.163-2.069h-2.123ZM162.434,77.016h2.163c1.545,0,2.244-.577,2.244-1.733,0-1.089-.699-1.707-2.069-1.707h-2.338v3.439Z" fill="#154758" stroke-width="0"></path><path d="M172.634,79.072l-1.115,3.05h-.967l3.399-9.378h1.169l3.533,9.378h-1.034l-1.129-3.05h-3.856ZM176.208,78.225c-.981-2.646-1.491-3.963-1.68-4.635h-.013c-.228.752-.819,2.378-1.599,4.635h3.292Z" fill="#154758" stroke-width="0"></path><path d="M182.538,72.744v9.378h-.954v-9.378h.954Z" fill="#154758" stroke-width="0"></path><path d="M186.555,82.122v-9.378h1.33c1.411,2.23,4.608,7.201,5.173,8.222h.013c-.08-1.29-.067-2.714-.067-4.246v-3.977h.927v9.378h-1.236c-1.33-2.109-4.608-7.363-5.24-8.41h-.027c.067,1.155.067,2.633.067,4.326v4.084h-.94Z" fill="#154758" stroke-width="0"></path><path d="M203.633,77.607h-4.729v3.668h5.186l-.135.846h-6.005v-9.378h5.912v.847h-4.958v3.171h4.729v.846Z" fill="#154758" stroke-width="0"></path><path d="M207.599,79.556c.268,1.195,1.061,1.881,2.525,1.881,1.599,0,2.217-.779,2.217-1.747,0-1.008-.457-1.599-2.445-2.083-2.083-.524-2.902-1.209-2.902-2.553,0-1.303.954-2.445,3.009-2.445,2.136,0,3.037,1.276,3.158,2.459h-.981c-.201-.927-.793-1.639-2.217-1.639-1.263,0-1.962.578-1.962,1.559,0,.953.577,1.33,2.27,1.747,2.661.658,3.09,1.706,3.09,2.875,0,1.437-1.061,2.619-3.292,2.619-2.351,0-3.278-1.33-3.466-2.673h.995Z" fill="#154758" stroke-width="0"></path></g><g id="type"><path d="M1.302,1.726h12.761v22.906C16.108,15.06,21.753,1.153,30.179,1.153c9.571,0,9.162,9.98,9.162,21.924v1.554c2.045-9.571,7.69-23.478,16.116-23.478,9.489,0,9.08,9.98,9.08,21.924v20.288c0,2.045,3.6,2.372,5.318,2.536v.818h-18.079v-.818c2.045-.163,5.317-.491,5.317-2.536v-20.37c0-10.471.573-17.67-4.09-17.67-7.281,0-12.926,17.752-13.662,23.069v14.971c0,2.045,3.518,2.372,5.236,2.536v.818h-17.998v-.818c1.963-.163,5.236-.491,5.236-2.536v-20.37c0-10.471.573-17.67-4.09-17.67-7.281,0-12.926,17.752-13.662,23.069v14.971c0,2.045,3.6,2.372,5.317,2.536v.818H1.302v-.818c2.045-.163,5.317-.491,5.317-2.536V4.998c0-2.045-3.272-2.209-5.317-2.454v-.818Z" fill="#154758" stroke-width="0"></path><path d="M73.782,24.959c0-12.925,10.389-24.214,23.56-24.214,12.598,0,22.251,9.49,22.251,22.006,0,13.17-10.226,24.46-23.724,24.46-12.189,0-22.087-9.735-22.087-22.251ZM97.833,46.065c10.962,0,13.825-12.68,13.989-21.106.245-9.735-4.417-23.069-16.197-23.069-10.962,0-13.989,13.744-13.989,21.024,0,9.653,4.499,23.151,16.197,23.151Z" fill="#154758" stroke-width="0"></path><path d="M121.148,1.726h19.306v.818c-1.309.163-5.89.163-4.99,2.699l11.371,31.986c.737,2.045,1.227,3.027,2.782,3.027,1.636,0,2.372-.818,3.109-3.108l10.716-31.495c.9-2.455-3.681-2.945-4.99-3.108v-.818h12.516v.818c-2.127.245-5.481.736-6.299,3.108l-10.716,31.495c-2.699,7.853-4.172,9.817-7.526,9.817s-5.154-1.718-8.017-9.735l-11.535-31.986c-.654-1.882-3.6-2.372-5.726-2.699v-.818Z" fill="#154758" stroke-width="0"></path><path d="M177.313,25.368c3.763-2.536,15.216-7.117,14.643-12.434-.164-2.045-1.473-3.681-6.054-3.272-4.431.375-7.767,3.178-10.045,3.178-.708,0-1.313-.271-1.817-.969-2.209-3.027,2.045-9.162,13.253-10.716,1.531-.223,3.02-.338,4.449-.338,9.029,0,15.675,4.595,15.675,15.472,0,12.517.082,21.515.082,24.46,0,1.713.681,3.006,2.043,3.006,1.045,0,2.491-.762,4.337-2.679l.818.573s-4.99,5.645-10.226,5.645-4.581-5.318-4.581-9.899c-3.19,2.782-10.144,9.817-20.042,9.735-5.072,0-9.653-1.963-10.553-7.035-1.145-6.954,3.272-11.453,8.017-14.725ZM177.722,38.62c1.19,3.027,4.559,4.412,7.959,4.412,1.744,0,3.496-.364,4.966-1.058,3.027-1.309,7.199-3.927,9.244-5.89v-19.879c0-10.553-4.908-13.907-9.898-13.825-4.254.082-7.853,2.127-9.326,4.581-.572.9.573,1.145,1.636,1.064,5.317-.573,10.226.491,10.716,4.581.409,3.108-1.145,6.79-7.608,11.698-6.463,4.909-9.489,9.653-7.69,14.316Z" fill="#154758" stroke-width="0"></path></g></svg>
